<?xml version="1.0" encoding="utf-8"?>
<!-- Generator: Adobe Illustrator 22.1.0, SVG Export Plug-In . SVG Version: 6.00 Build 0)  -->
<svg version="1.1" id="Capa_1" xmlns="http://www.w3.org/2000/svg" xmlns:xlink="http://www.w3.org/1999/xlink" x="0px" y="0px"
	 viewBox="0 0 111.6 111.6" style="enable-background:new 0 0 111.6 111.6;" xml:space="preserve">
<style type="text/css">
	.st0{fill:#999999;}
</style>
<g>
	<path class="st0" d="M104.2,27.8c-5-6.1-11.8-11-20.3-14.5C75.3,9.7,65.9,8,55.8,8c-10.1,0-19.5,1.8-28,5.3S12.5,21.7,7.5,27.8
		c-5,6.1-7.5,12.8-7.5,20c0,6.2,1.9,12.1,5.6,17.5c3.8,5.4,8.9,10,15.4,13.7c-0.5,1.7-1,3.2-1.6,4.7c-0.6,1.5-1.2,2.7-1.7,3.7
		c-0.5,1-1.2,2-2,3.2c-0.9,1.2-1.5,2-1.9,2.5c-0.4,0.5-1.2,1.3-2.1,2.4c-1,1.1-1.6,1.8-1.9,2.1c0,0-0.2,0.2-0.5,0.6
		c-0.3,0.4-0.4,0.5-0.4,0.5l-0.4,0.6c-0.2,0.3-0.3,0.5-0.3,0.6c0,0.1,0,0.3-0.1,0.6c-0.1,0.3-0.1,0.6,0,0.7v0.1
		c0.2,0.7,0.5,1.3,1,1.7c0.5,0.4,1.1,0.7,1.7,0.7H11c2.7-0.3,5.1-0.8,7.1-1.4c10.9-2.8,20.4-7.8,28.7-15.1c3.1,0.3,6.1,0.5,9,0.5
		c10.1,0,19.5-1.8,28-5.3c8.6-3.6,15.3-8.4,20.3-14.5c5-6.1,7.5-12.8,7.5-20C111.6,40.6,109.1,33.9,104.2,27.8z M97.1,63.7
		c-4.3,4.9-10.2,8.8-17.6,11.7c-7.4,2.9-15.3,4.3-23.8,4.3c-2.5,0-5.2-0.2-8.1-0.5l-3.6-0.4l-2.7,2.4c-5.1,4.5-10.8,8-17.1,10.7
		c1.9-3.4,3.4-6.9,4.4-10.7l1.7-6L25,72.1c-5.4-3.1-9.6-6.7-12.6-10.9C9.5,56.9,8,52.5,8,47.8c0-5.7,2.2-11,6.5-15.9
		c4.3-4.9,10.2-8.8,17.6-11.7c7.4-2.9,15.3-4.3,23.8-4.3c8.5,0,16.4,1.4,23.8,4.3c7.4,2.9,13.2,6.8,17.6,11.7
		c4.3,4.9,6.5,10.2,6.5,15.9S101.5,58.8,97.1,63.7z"/>
</g>
</svg>
